<svg width="90" height="90" viewBox="0 0 90 90" fill="none" xmlns="http://www.w3.org/2000/svg">
<g opacity="0.2" filter="url(#filter0_d_612_450)">
<circle cx="45" cy="45" r="45" fill="#4D46C7"/>
</g>
<g clip-path="url(#clip0_612_450)">
<path d="M23 42.9448C23 33.9034 23 29.3827 25.6363 26.4394C25.8891 26.1572 26.1572 25.8891 26.4394 25.6363C29.3827 23 33.9034 23 42.9448 23H46.0708C55.1122 23 59.6329 23 62.5763 25.6363C62.8585 25.8891 63.1266 26.1572 63.3793 26.4394C66.0156 29.3827 66.0156 33.9034 66.0156 42.9448V46.0708C66.0156 55.1122 66.0156 59.6329 63.3793 62.5763C63.1266 62.8585 62.8585 63.1266 62.5763 63.3793C59.6329 66.0156 55.1122 66.0156 46.0708 66.0156H23V42.9448Z" fill="white"/>
<circle cx="25.3881" cy="64.1431" r="13.7573" fill="black"/>
<rect y="0.881168" width="20.6085" height="42.8543" rx="10.3042" transform="matrix(0.731217 0.682145 -0.731217 0.682145 50.6311 -2.81257)" fill="#3B71ED" stroke="black" stroke-width="1.29176"/>
<rect y="0.881168" width="20.6085" height="42.8543" rx="10.3042" transform="matrix(0.731217 0.682145 -0.731217 0.682145 65.3006 11.509)" fill="#EE674E" stroke="black" stroke-width="1.29176"/>
<rect y="0.881168" width="20.6085" height="42.8543" rx="10.3042" transform="matrix(0.731217 0.682145 -0.731217 0.682145 79.8382 26.3376)" fill="#A888CE" stroke="black" stroke-width="1.29176"/>
</g>
<path d="M22.3541 66.0156V66.6615H23H46.0708H46.1184C50.5989 66.6615 54.0223 66.6615 56.6907 66.327C59.3845 65.9892 61.3982 65.3016 63.0072 63.8605C63.307 63.5919 63.5919 63.307 63.8605 63.0072C65.3016 61.3982 65.9892 59.3845 66.327 56.6907C66.6615 54.0223 66.6615 50.5989 66.6615 46.1184V46.0708V42.9448V42.8972C66.6615 38.4168 66.6615 34.9933 66.327 32.325C65.9892 29.6311 65.3016 27.6174 63.8605 26.0084C63.5919 25.7086 63.307 25.4237 63.0072 25.1552C61.3982 23.7141 59.3845 23.0264 56.6907 22.6887C54.0223 22.3541 50.5989 22.3541 46.1184 22.3541H46.0708H42.9448H42.8972C38.4168 22.3541 34.9933 22.3541 32.325 22.6887C29.6311 23.0264 27.6174 23.7141 26.0084 25.1552C25.7086 25.4237 25.4237 25.7086 25.1552 26.0084C23.7141 27.6174 23.0264 29.6311 22.6887 32.325C22.3541 34.9933 22.3541 38.4168 22.3541 42.8972V42.9448V66.0156Z" stroke="black" stroke-width="1.29176"/>
<defs>
<filter id="filter0_d_612_450" x="-27" y="0" width="144" height="147" filterUnits="userSpaceOnUse" color-interpolation-filters="sRGB">
<feFlood flood-opacity="0" result="BackgroundImageFix"/>
<feColorMatrix in="SourceAlpha" type="matrix" values="0 0 0 0 0 0 0 0 0 0 0 0 0 0 0 0 0 0 127 0" result="hardAlpha"/>
<feMorphology radius="8" operator="erode" in="SourceAlpha" result="effect1_dropShadow_612_450"/>
<feOffset dy="30"/>
<feGaussianBlur stdDeviation="17.5"/>
<feColorMatrix type="matrix" values="0 0 0 0 0.301961 0 0 0 0 0.27451 0 0 0 0 0.780392 0 0 0 0.11 0"/>
<feBlend mode="normal" in2="BackgroundImageFix" result="effect1_dropShadow_612_450"/>
<feBlend mode="normal" in="SourceGraphic" in2="effect1_dropShadow_612_450" result="shape"/>
</filter>
<clipPath id="clip0_612_450">
<path d="M23 42.9448C23 33.9034 23 29.3827 25.6363 26.4394C25.8891 26.1572 26.1572 25.8891 26.4394 25.6363C29.3827 23 33.9034 23 42.9448 23H46.0708C55.1122 23 59.6329 23 62.5763 25.6363C62.8585 25.8891 63.1266 26.1572 63.3793 26.4394C66.0156 29.3827 66.0156 33.9034 66.0156 42.9448V46.0708C66.0156 55.1122 66.0156 59.6329 63.3793 62.5763C63.1266 62.8585 62.8585 63.1266 62.5763 63.3793C59.6329 66.0156 55.1122 66.0156 46.0708 66.0156H23V42.9448Z" fill="white"/>
</clipPath>
</defs>
</svg>
773 15.9356C62.2056 15.9356 61.7298 16.0363 61.3454 16.2376C60.9794 16.4389 60.7414 16.7226 60.6316 17.0886C60.5767 17.29 60.4578 17.3815 60.2747 17.3632L56.9529 16.9239C56.7333 16.8873 56.6326 16.805 56.6509 16.6768C56.7241 15.9082 57.0261 15.2127 57.5569 14.5904C58.1059 13.9681 58.8197 13.4831 59.6982 13.1354C60.595 12.7876 61.5925 12.6138 62.6906 12.6138ZM62.1416 24.2814C62.9286 24.2814 63.5966 24.0709 64.1456 23.65C64.6947 23.229 64.9692 22.6891 64.9692 22.0302V21.0419C64.9692 20.9504 64.9235 20.9046 64.832 20.9046H62.8553C62.0317 20.9046 61.382 21.0602 60.9062 21.3713C60.4486 21.6825 60.2198 22.1217 60.2198 22.6891C60.2198 23.1833 60.3937 23.5768 60.7414 23.8696C61.0892 24.1441 61.5559 24.2814 62.1416 24.2814Z" fill="#3B71ED"/>
<path d="M48.9094 27.1364C47.6831 27.1364 46.6125 26.9625 45.6973 26.6148C44.7822 26.2671 44.0685 25.7821 43.556 25.1598C43.0618 24.5375 42.8148 23.8329 42.8148 23.0459V22.7714C42.8148 22.6798 42.8422 22.6066 42.8971 22.5517C42.9703 22.4785 43.0527 22.4419 43.1442 22.4419H46.1915C46.283 22.4419 46.3562 22.4785 46.4111 22.5517C46.4843 22.6066 46.5209 22.6798 46.5209 22.7714V22.7988C46.5209 23.2015 46.7406 23.5492 47.1798 23.842C47.6374 24.1166 48.2047 24.2538 48.8819 24.2538C49.5042 24.2538 50.0075 24.1349 50.3919 23.8969C50.7762 23.6407 50.9684 23.3296 50.9684 22.9635C50.9684 22.6341 50.8036 22.387 50.4742 22.2223C50.1448 22.0576 49.6049 21.8837 48.8545 21.7007C47.9943 21.4811 47.3171 21.2706 46.8229 21.0693C45.6516 20.6666 44.7182 20.1724 44.0227 19.5868C43.3272 19.0011 42.9795 18.1592 42.9795 17.0611C42.9795 15.7067 43.5011 14.636 44.5443 13.8491C45.6058 13.0438 47.006 12.6411 48.7447 12.6411C49.916 12.6411 50.9409 12.8333 51.8194 13.2176C52.6979 13.5837 53.3751 14.1053 53.851 14.7825C54.3451 15.4596 54.5922 16.2283 54.5922 17.0885C54.5922 17.18 54.5556 17.2624 54.4824 17.3356C54.4275 17.3905 54.3543 17.418 54.2628 17.418H51.3253C51.2337 17.418 51.1514 17.3905 51.0782 17.3356C51.0233 17.2624 50.9958 17.18 50.9958 17.0885C50.9958 16.6859 50.7853 16.3473 50.3644 16.0728C49.9617 15.7982 49.4218 15.661 48.7447 15.661C48.1407 15.661 47.6465 15.7708 47.2622 15.9904C46.8778 16.21 46.6857 16.512 46.6857 16.8964C46.6857 17.2624 46.8687 17.5369 47.2347 17.72C47.6191 17.903 48.2505 18.0952 49.129 18.2965C49.3303 18.3514 49.5591 18.4154 49.8153 18.4887C50.0716 18.5436 50.3461 18.6168 50.6389 18.7083C51.9384 19.0926 52.9633 19.5868 53.7137 20.1908C54.4641 20.7947 54.8393 21.6732 54.8393 22.8263C54.8393 24.1806 54.2994 25.2421 53.2195 26.0108C52.158 26.7612 50.7213 27.1364 48.9094 27.1364Z" fill="#3B71ED"/>
<path d="M35.3176 27.1364C34.0913 27.1364 33.0207 26.9625 32.1056 26.6148C31.1904 26.2671 30.4767 25.7821 29.9642 25.1598C29.47 24.5375 29.223 23.8329 29.223 23.0459V22.7714C29.223 22.6798 29.2504 22.6066 29.3053 22.5517C29.3785 22.4785 29.4609 22.4419 29.5524 22.4419H32.5997C32.6912 22.4419 32.7644 22.4785 32.8193 22.5517C32.8925 22.6066 32.9291 22.6798 32.9291 22.7714V22.7988C32.9291 23.2015 33.1488 23.5492 33.588 23.842C34.0456 24.1166 34.6129 24.2538 35.2901 24.2538C35.9124 24.2538 36.4157 24.1349 36.8001 23.8969C37.1844 23.6407 37.3766 23.3296 37.3766 22.9635C37.3766 22.6341 37.2119 22.387 36.8824 22.2223C36.553 22.0576 36.0131 21.8837 35.2627 21.7007C34.4025 21.4811 33.7253 21.2706 33.2311 21.0693C32.0598 20.6666 31.1264 20.1724 30.4309 19.5868C29.7354 19.0011 29.3877 18.1592 29.3877 17.0611C29.3877 15.7067 29.9093 14.636 30.9525 13.8491C32.014 13.0438 33.4142 12.6411 35.1529 12.6411C36.3242 12.6411 37.3491 12.8333 38.2276 13.2176C39.1061 13.5837 39.7833 14.1053 40.2592 14.7825C40.7533 15.4596 41.0004 16.2283 41.0004 17.0885C41.0004 17.18 40.9638 17.2624 40.8906 17.3356C40.8357 17.3905 40.7625 17.418 40.671 17.418H37.7335C37.642 17.418 37.5596 17.3905 37.4864 17.3356C37.4315 17.2624 37.404 17.18 37.404 17.0885C37.404 16.6859 37.1935 16.3473 36.7726 16.0728C36.37 15.7982 35.83 15.661 35.1529 15.661C34.5489 15.661 34.0547 15.7708 33.6704 15.9904C33.286 16.21 33.0939 16.512 33.0939 16.8964C33.0939 17.2624 33.2769 17.5369 33.6429 17.72C34.0273 17.903 34.6587 18.0952 35.5372 18.2965C35.7385 18.3514 35.9673 18.4154 36.2235 18.4887C36.4798 18.5436 36.7543 18.6168 37.0471 18.7083C38.3466 19.0926 39.3715 19.5868 40.1219 20.1908C40.8723 20.7947 41.2475 21.6732 41.2475 22.8263C41.2475 24.1806 40.7076 25.2421 39.6277 26.0108C38.5662 26.7612 37.1295 27.1364 35.3176 27.1364Z" fill="#3B71ED"/>
<path d="M134.508 16.6219C134.838 17.5554 135.003 18.6535 135.003 19.9163C135.003 21.1792 134.829 22.3231 134.481 23.348C134.06 24.5193 133.392 25.4527 132.477 26.1482C131.58 26.8254 130.464 27.164 129.128 27.164C127.81 27.164 126.785 26.7064 126.053 25.7913C126.016 25.7364 125.98 25.7181 125.943 25.7364C125.906 25.7547 125.888 25.7913 125.888 25.8462V31.7212C125.888 31.8127 125.852 31.8859 125.778 31.9408C125.723 32.0141 125.65 32.0507 125.559 32.0507H122.347C122.255 32.0507 122.173 32.0141 122.1 31.9408C122.045 31.8859 122.017 31.8127 122.017 31.7212V13.1628C122.017 13.0713 122.045 12.9981 122.1 12.9432C122.173 12.87 122.255 12.8334 122.347 12.8334H125.559C125.65 12.8334 125.723 12.87 125.778 12.9432C125.852 12.9981 125.888 13.0713 125.888 13.1628V14.0688C125.888 14.1237 125.906 14.1603 125.943 14.1786C125.98 14.1786 126.016 14.1603 126.053 14.1237C126.822 13.1171 127.883 12.6138 129.237 12.6138C130.5 12.6138 131.589 12.9707 132.504 13.6844C133.438 14.3799 134.106 15.3591 134.508 16.6219ZM130.308 22.7715C130.766 22.0577 130.994 21.0877 130.994 19.8614C130.994 18.7084 130.802 17.7933 130.418 17.1161C129.997 16.3291 129.32 15.9356 128.386 15.9356C127.544 15.9356 126.913 16.3291 126.492 17.1161C126.108 17.775 125.916 18.6992 125.916 19.8889C125.916 21.1151 126.117 22.0668 126.52 22.744C126.94 23.4761 127.563 23.8421 128.386 23.8421C129.21 23.8421 129.851 23.4852 130.308 22.7715Z" fill="#242424"/>
<path d="M115.535 26.9443C115.443 26.9443 115.361 26.9169 115.288 26.862C115.233 26.7887 115.205 26.7064 115.205 26.6149V8.05649C115.205 7.96498 115.233 7.89177 115.288 7.83686C115.361 7.76366 115.443 7.72705 115.535 7.72705H118.747C118.838 7.72705 118.911 7.76366 118.966 7.83686C119.04 7.89177 119.076 7.96498 119.076 8.05649V26.6149C119.076 26.7064 119.04 26.7887 118.966 26.862C118.911 26.9169 118.838 26.9443 118.747 26.9443H115.535Z" fill="#242424"/>
<path d="M112.709 18.434C112.819 19.1294 112.856 19.9073 112.819 20.7675C112.801 20.9871 112.682 21.0969 112.462 21.0969H103.979C103.869 21.0969 103.833 21.1427 103.869 21.2342C103.924 21.6002 104.025 21.9663 104.171 22.3323C104.647 23.3572 105.617 23.8697 107.081 23.8697C108.253 23.8514 109.177 23.3755 109.854 22.4421C109.927 22.3323 110.01 22.2774 110.101 22.2774C110.156 22.2774 110.22 22.314 110.293 22.3872L112.27 24.3364C112.362 24.4279 112.407 24.5103 112.407 24.5835C112.407 24.6201 112.371 24.6933 112.298 24.8031C111.694 25.5535 110.916 26.1392 109.964 26.5601C109.012 26.9628 107.969 27.1641 106.834 27.1641C105.26 27.1641 103.924 26.8072 102.826 26.0934C101.746 25.3796 100.969 24.3822 100.493 23.101C100.108 22.1859 99.9161 20.9871 99.9161 19.5046C99.9161 18.498 100.053 17.6104 100.328 16.8417C100.749 15.5422 101.481 14.5082 102.524 13.7395C103.586 12.9708 104.839 12.5864 106.285 12.5864C108.116 12.5864 109.58 13.1172 110.678 14.1787C111.794 15.2402 112.471 16.6587 112.709 18.434ZM106.313 15.9357C105.16 15.9357 104.4 16.4756 104.034 17.5555C103.961 17.7934 103.897 18.0862 103.842 18.434C103.842 18.5255 103.888 18.5712 103.979 18.5712H108.729C108.838 18.5712 108.875 18.5255 108.838 18.434C108.747 17.9032 108.701 17.647 108.701 17.6653C108.536 17.1162 108.244 16.6953 107.823 16.4024C107.42 16.0913 106.917 15.9357 106.313 15.9357Z" fill="#242424"/>
<path d="M92.6423 12.6137C94.1065 12.6137 95.2869 13.0621 96.1838 13.9589C97.0806 14.8557 97.529 16.0728 97.529 17.6102V26.6149C97.529 26.7064 97.4924 26.7887 97.4191 26.862C97.3642 26.9169 97.291 26.9443 97.1995 26.9443H93.9875C93.896 26.9443 93.8136 26.9169 93.7404 26.862C93.6855 26.7887 93.6581 26.7064 93.6581 26.6149V18.4064C93.6581 17.6743 93.4476 17.0795 93.0266 16.6219C92.624 16.1643 92.0841 15.9356 91.4069 15.9356C90.7297 15.9356 90.1806 16.1643 89.7597 16.6219C89.357 17.0795 89.1557 17.6743 89.1557 18.4064V26.6149C89.1557 26.7064 89.1191 26.7887 89.0459 26.862C88.991 26.9169 88.9178 26.9443 88.8263 26.9443H85.6143C85.5227 26.9443 85.4404 26.9169 85.3672 26.862C85.3123 26.7887 85.2848 26.7064 85.2848 26.6149V8.05649C85.2848 7.96498 85.3123 7.89177 85.3672 7.83686C85.4404 7.76366 85.5227 7.72705 85.6143 7.72705H88.8263C88.9178 7.72705 88.991 7.76366 89.0459 7.83686C89.1191 7.89177 89.1557 7.96498 89.1557 8.05649V14.1237C89.1557 14.1786 89.174 14.2152 89.2106 14.2335C89.2472 14.2518 89.2747 14.2426 89.293 14.206C90.0434 13.1445 91.1598 12.6137 92.6423 12.6137Z" fill="#242424"/>
</svg>
